<?xml version="1.0" encoding="UTF-8" standalone="no"?>
<!DOCTYPE svg PUBLIC "-//W3C//DTD SVG 1.1//EN" "http://www.w3.org/Graphics/SVG/1.1/DTD/svg11.dtd">
<svg version="1.1" xmlns="http://www.w3.org/2000/svg" xmlns:xlink="http://www.w3.org/1999/xlink" preserveAspectRatio="xMidYMid meet" viewBox="0 0 86 86" width="86" height="86"><defs><path d="M75.16 0C82.39 0 86 3.61 86 10.84C86 49.43 86 70.88 86 75.16C86 82.39 82.39 86 75.16 86C36.57 86 15.12 86 10.84 86C3.61 86 0 82.39 0 75.16C0 36.57 0 15.12 0 10.84C0 3.61 3.61 0 10.84 0C49.43 0 70.88 0 75.16 0Z" id="iQjXjE5Gm"></path><path d="M49.52 65.02L43.36 50.97L38.48 50.97L38.48 65.02L24.97 65.02L24.97 20.41C39.26 20.41 47.19 20.41 48.78 20.41C53.82 20.41 57.75 21.87 60.58 24.79C63.41 27.71 64.83 31.36 64.83 35.73C64.83 39.2 64.04 42.06 62.46 44.29C60.87 46.51 58.99 48.16 56.81 49.23C57.34 50.29 60.04 55.55 64.9 65.02L49.52 65.02ZM49.85 38.3C50.7 37.7 51.12 36.82 51.12 35.66C51.12 34.54 50.7 33.69 49.85 33.08C49 32.48 47.96 32.18 46.71 32.18C46.16 32.18 43.42 32.18 38.48 32.18L38.48 39.2L46.71 39.2C48.24 39 49.29 38.7 49.85 38.3Z" id="d4nJXNJyla"></path><path d="M28.79 40.25C28.79 40.25 28.79 40.25 28.79 40.25C28.79 46.94 28.79 50.65 28.79 51.39C28.79 51.39 28.79 51.39 28.79 51.39C19.88 51.39 14.92 51.39 13.93 51.39C13.93 51.39 13.93 51.39 13.93 51.39C13.93 44.71 13.93 40.99 13.93 40.25C13.93 40.25 13.93 40.25 13.93 40.25C22.85 40.25 27.8 40.25 28.79 40.25Z" id="c2t5vSGbRF"></path><path d="" id="a13GsSaoX4"></path></defs><g><g><g><use xlink:href="#iQjXjE5Gm" opacity="1" fill="#000000" fill-opacity="1"></use><g><use xlink:href="#iQjXjE5Gm" opacity="1" fill-opacity="0" stroke="#000000" stroke-width="1" stroke-opacity="0"></use></g></g><g><use xlink:href="#d4nJXNJyla" opacity="1" fill="#ffffff" fill-opacity="1"></use><g><use xlink:href="#d4nJXNJyla" opacity="1" fill-opacity="0" stroke="#000000" stroke-width="1" stroke-opacity="0"></use></g></g><g><use xlink:href="#c2t5vSGbRF" opacity="1" fill="#ffffff" fill-opacity="1"></use><g><use xlink:href="#c2t5vSGbRF" opacity="1" fill-opacity="0" stroke="#000000" stroke-width="1" stroke-opacity="0"></use></g></g><g><g><use xlink:href="#a13GsSaoX4" opacity="1" fill-opacity="0" stroke="#9a76a8" stroke-width="2" stroke-opacity="1"></use></g></g></g></g></svg>