<?xml version="1.0" encoding="UTF-8" standalone="no"?>
<!DOCTYPE svg PUBLIC "-//W3C//DTD SVG 1.1//EN" "http://www.w3.org/Graphics/SVG/1.1/DTD/svg11.dtd">
<svg version="1.1" xmlns="http://www.w3.org/2000/svg" xmlns:xlink="http://www.w3.org/1999/xlink" preserveAspectRatio="xMidYMid meet" viewBox="0 0 86 86" width="86" height="86"><defs><path d="M75.16 0C82.39 0 86 3.61 86 10.84C86 49.43 86 70.88 86 75.16C86 82.39 82.39 86 75.16 86C36.57 86 15.12 86 10.84 86C3.61 86 0 82.39 0 75.16C0 36.57 0 15.12 0 10.84C0 3.61 3.61 0 10.84 0C49.43 0 70.88 0 75.16 0Z" id="a7BCIRLR3"></path><path d="M49.28 65.35L43.28 51.24L38.39 51.19L38.25 65.23L24.74 65.09L25.21 20.49C39.5 20.64 47.43 20.72 49.02 20.74C54.05 20.79 57.97 22.3 60.77 25.25C63.57 28.2 64.95 31.85 64.9 36.22C64.87 39.7 64.04 42.55 62.44 44.76C60.83 46.97 58.93 48.6 56.74 49.65C57.26 50.7 59.9 55.99 64.66 65.51L49.28 65.35ZM49.9 38.64C50.75 38.05 51.18 37.17 51.2 36.01C51.21 34.9 50.79 34.03 49.95 33.42C49.11 32.81 48.07 32.5 46.82 32.49C46.27 32.48 43.53 32.45 38.59 32.4L38.52 39.42L46.74 39.51C48.28 39.32 49.33 39.03 49.9 38.64Z" id="b3JQUqB9NH"></path><path d="M28.79 40.25C28.79 40.25 28.79 40.25 28.79 40.25C28.79 46.94 28.79 50.65 28.79 51.39C28.79 51.39 28.79 51.39 28.79 51.39C19.88 51.39 14.92 51.39 13.93 51.39C13.93 51.39 13.93 51.39 13.93 51.39C13.93 44.71 13.93 40.99 13.93 40.25C13.93 40.25 13.93 40.25 13.93 40.25C22.85 40.25 27.8 40.25 28.79 40.25Z" id="f1q7E0zK5"></path></defs><g><g><g><use xlink:href="#a7BCIRLR3" opacity="1" fill="#ffffff" fill-opacity="1"></use><g><use xlink:href="#a7BCIRLR3" opacity="1" fill-opacity="0" stroke="#000000" stroke-width="1" stroke-opacity="0"></use></g></g><g><use xlink:href="#b3JQUqB9NH" opacity="1" fill="#000000" fill-opacity="1"></use><g><use xlink:href="#b3JQUqB9NH" opacity="1" fill-opacity="0" stroke="#000000" stroke-width="1" stroke-opacity="0"></use></g></g><g><use xlink:href="#f1q7E0zK5" opacity="1" fill="#000000" fill-opacity="1"></use><g><use xlink:href="#f1q7E0zK5" opacity="1" fill-opacity="0" stroke="#000000" stroke-width="1" stroke-opacity="0"></use></g></g></g></g></svg>