<?xml version="1.0" encoding="UTF-8" standalone="no"?>
<!DOCTYPE svg PUBLIC "-//W3C//DTD SVG 1.1//EN" "http://www.w3.org/Graphics/SVG/1.1/DTD/svg11.dtd">
<svg version="1.1" xmlns="http://www.w3.org/2000/svg" xmlns:xlink="http://www.w3.org/1999/xlink" preserveAspectRatio="xMidYMid meet" viewBox="0 0 64 64" width="64" height="64"><defs><path d="M0 56.89C0 60.87 3.1 64 7.04 64C12.03 64 51.97 64 56.97 64C60.91 64 64 60.87 64 56.89C64 51.92 64 12.09 64 7.12C64 3.13 60.91 0 56.97 0C46.98 0 12.03 0 7.04 0C3.1 0 0 3.13 0 7.12C0 12.09 0 51.92 0 56.89Z" id="a2thdLobjB"></path><path d="M29.96 38.5L29.96 49.57C23.45 49.57 19.84 49.57 19.12 49.57C19.12 28.49 19.12 16.78 19.12 14.43C30.56 14.43 36.92 14.43 38.19 14.43C42.17 14.43 45.32 15.54 47.66 17.89C49.99 20.24 51.09 23.01 51.09 26.47C51.09 29.24 50.4 31.45 49.17 33.25C47.93 35.04 46.42 36.29 44.64 37.12C45.07 37.95 47.22 42.1 51.09 49.57C50.27 49.57 46.15 49.57 38.74 49.57C38.41 48.83 36.76 45.14 33.8 38.5L29.96 38.5ZM38.87 24.39C38.19 23.98 37.36 23.7 36.41 23.7C35.96 23.7 33.77 23.7 29.82 23.7C29.82 24.08 29.82 25.92 29.82 29.24C33.77 29.24 35.96 29.24 36.41 29.24C37.59 29.05 38.42 28.82 38.87 28.55C39.57 28.13 39.84 27.44 39.84 26.47C39.84 25.63 39.57 24.94 38.87 24.39Z" id="dpFjlkL2b"></path><path d="M27.8 28.16C27.8 28.16 27.8 28.16 27.8 28.16C27.8 33.99 27.8 37.23 27.8 37.88C27.8 37.88 27.8 37.88 27.8 37.88C18.08 37.88 12.68 37.88 11.6 37.88C11.6 37.88 11.6 37.88 11.6 37.88C11.6 32.05 11.6 28.81 11.6 28.16C11.6 28.16 11.6 28.16 11.6 28.16C21.32 28.16 26.72 28.16 27.8 28.16Z" id="d1VOB5dvof"></path></defs><g><g><g><use xlink:href="#a2thdLobjB" opacity="1" fill="#253858" fill-opacity="1"></use><g><use xlink:href="#a2thdLobjB" opacity="1" fill-opacity="0" stroke="#253858" stroke-width="0" stroke-opacity="1"></use></g></g><g><use xlink:href="#dpFjlkL2b" opacity="1" fill="#ffffff" fill-opacity="1"></use><g><use xlink:href="#dpFjlkL2b" opacity="1" fill-opacity="0" stroke="#000000" stroke-width="1" stroke-opacity="0"></use></g></g><g><use xlink:href="#d1VOB5dvof" opacity="1" fill="#ffffff" fill-opacity="1"></use><g><use xlink:href="#d1VOB5dvof" opacity="1" fill-opacity="0" stroke="#000000" stroke-width="1" stroke-opacity="0"></use></g></g></g></g></svg>