<?xml version="1.0" encoding="UTF-8"?>
<svg width="67px" height="67px" viewBox="0 0 67 67" version="1.1" xmlns="http://www.w3.org/2000/svg" xmlns:xlink="http://www.w3.org/1999/xlink">
    <!-- Generator: Sketch 57.1 (83088) - https://sketch.com -->
    <title>Artboard</title>
    <desc>Created with Sketch.</desc>
    <g id="Artboard" stroke="none" stroke-width="1" fill="none" fill-rule="evenodd">
        <g id="icon" transform="translate(3.000000, 3.000000)">
            <g id="e45iW5UIr-link" transform="translate(16.080000, 13.200000)" fill="#17202A" fill-rule="nonzero">
                <path d="M14.7199091,24.302025 L10.8760909,24.302025 L10.8760909,35.3727 L0.0368181818,35.3727 C0.0368181818,14.2857 0.0368181818,2.576475 0.0368181818,0.230175 C11.4799091,0.230175 17.8420909,0.230175 19.1086364,0.230175 C23.0923636,0.230175 26.244,1.3365 28.5782727,3.690225 C30.9125455,6.04395 32.0097273,8.80605 32.0097273,12.2661 C32.0097273,15.035625 31.3175455,17.248275 30.0878182,19.045125 C28.8507273,20.841975 27.3411818,22.089375 25.5591818,22.920975 C25.9862727,23.752575 28.1364545,27.90315 32.0097273,35.3727 C31.185,35.3727 27.0687273,35.3727 19.6609091,35.3727 L14.7199091,24.302025 Z M20.7580909,12.2661 C20.7580909,11.4345 20.4856364,10.743975 19.7934545,10.194525 C19.1086364,9.778725 18.2839091,9.504 17.3266364,9.504 C16.8848182,9.504 14.6904545,9.504 10.7435455,9.504 C10.7435455,9.87525 10.7435455,11.71665 10.7435455,15.035625 C14.6904545,15.035625 16.8848182,15.035625 17.3266364,15.035625 C18.5121818,14.85 19.3369091,14.619825 19.7934545,14.3451 C20.4856364,13.9293 20.7580909,13.238775 20.7580909,12.2661 Z" id="e45iW5UIr"></path>
            </g>
            <rect id="Rectangle" fill="#17202A" x="9.6" y="26.16" width="16.2" height="9.72"></rect>
            <path d="M0,6.75304941 C0,11.4750635 0,49.2584188 0,53.9804329 C0,57.7536988 2.96936471,60.7230635 6.74987294,60.7230635 C11.5370682,60.7230635 49.8563576,60.7230635 54.6507953,60.7230635 C58.4313035,60.7230635 61.3934259,57.7536988 61.3934259,53.9804329 C61.3934259,49.2584188 61.3934259,11.4750635 61.3934259,6.75304941 C61.3934259,2.97254118 58.4313035,0.00317647059 54.6507953,0.00317647059 C45.0691624,0.00317647059 11.5370682,0.00317647059 6.74987294,0.00317647059 C2.96936471,0.00317647059 0,2.97254118 0,6.75304941 Z" id="ah6BZhDwS" stroke="#17202A" stroke-width="3" fill-rule="nonzero"></path>
        </g>
    </g>
</svg>