<svg id="Слой_1" data-name="Слой 1" xmlns="http://www.w3.org/2000/svg" viewBox="0 0 320.92 315.31"><defs><style>.cls-1,.cls-11,.cls-14,.cls-17,.cls-18,.cls-2,.cls-21,.cls-6{fill:none;stroke-linecap:round;stroke-linejoin:round;}.cls-1,.cls-2{stroke:#260317;}.cls-1{stroke-width:5px;}.cls-2{stroke-width:4px;}.cls-3{fill:#260317;}.cls-4{fill:#e8e3e3;}.cls-5{fill:#f4f2f2;}.cls-6{stroke:#e8e3e3;}.cls-17,.cls-6{stroke-width:3px;}.cls-7{fill:#e57ca2;}.cls-8{fill:#56d8a3;}.cls-9{fill:#d15d92;}.cls-10{fill:#5a81d1;}.cls-11{stroke:#dae6f7;}.cls-11,.cls-21{stroke-width:7px;}.cls-12{fill:#ffdad7;}.cls-13{fill:#fcd2d0;}.cls-14,.cls-17{stroke:#bdbbbb;}.cls-14,.cls-18{stroke-width:17px;}.cls-15{fill:#346fd6;}.cls-16{fill:#4e7ff0;}.cls-18{stroke:#2dc999;}.cls-19{fill:#2257bf;}.cls-20{fill:#446bc1;}.cls-21{stroke:#d9e4f4;}.cls-22{fill:#fff8fc;}.cls-23{fill:#dd76ac;}.cls-24{fill:#e59ac3;}.cls-25{fill:#efb9c0;}.cls-26{fill:#f2a5bd;}.cls-27{fill:#62d1a1;}.cls-28{fill:#31a382;}.cls-29{fill:#053318;}.cls-30{fill:#f4c1c6;}.cls-31{fill:#f5f8ff;}</style></defs><title>pig2</title><path class="cls-1" d="M271.75,411.42c8.64,1.88,10.86-8.2,20.46-11.92,24.55-9.53,30.57,34.37,69.06,23.63,16.59-4.63-3.5-1.13-19-14.36-18.71-16,25.53-6,2.12-21" transform="translate(-240.79 -136.07)"/><line class="cls-2" x1="13.13" y1="280.79" x2="2" y2="280.79"/><line class="cls-2" x1="13.13" y1="270.19" x2="2" y2="270.19"/><path class="cls-3" d="M270.33,422.9l-12.62,2c-4.79.77-9.09-2.95-9.09-8.38V406.3c0-5.43,4.3-9.15,9.09-8.38l12.62,2c3.13.5,5.48,4,5.48,7.85v7.26C275.81,418.9,273.47,422.4,270.33,422.9Z" transform="translate(-240.79 -136.07)"/><path class="cls-4" d="M481.2,413.62s-5.7-11.47-12.56-18.1c-5.5-5.32-9.35-6.28-9.35-6.28s-9.25,20.13-3.4,26.1C464.29,423.9,481.2,413.62,481.2,413.62Z" transform="translate(-240.79 -136.07)"/><path class="cls-5" d="M561.64,334.77c-.82,1.65-9.37,5.25-15.06,11.3-6.29,6.68-9.1,16.33-12.22,23.19-3.63,8-5.79,16.28-9.54,22.94-.24.43-.49.86-.75,1.28-.07.14-.14.25-.2.35l-.22.35a27.27,27.27,0,0,1-2.51,3.32,22,22,0,0,1-8,5.8c-7.36,3.15-11.62,2.44-17.34,1.81-5.19-.57-8.32-2.55-13.94-2.55-7.1,0-19.72,2.47-16.63,11.13a4.26,4.26,0,0,0,4.65,2.87c5-.31,13.88-7.36,11,.11-2.53,6.48-10,9.33-18.06,9.95-1.07.09-2.15.13-3.23.14h0c-1.42,0-2.85-.05-4.25-.16a38.38,38.38,0,0,1-13.45-3.27c-17.63-8.92-27.19-9.63-40.06-11.4-3.46-.47-.21-3.63,1-6.9,4.57-12.29,0-16.13-14.74-21.83-2.24-.86-4.72-1.77-7.44-2.76-13.58-4.95-15.58-22.82-12.33-40.6,2.33-12.8,7.39-25.55,12.8-33.38,3.13-4.53,6.38-7.41,9.28-7.71a4.35,4.35,0,0,1,1.25,0c14.77,2.48,40.88-2.56,40.88-2.56s17.3,24.88,17.3,13.43a8.16,8.16,0,0,1,4.82-7.71h0a14.69,14.69,0,0,1,3.64-1.23c8.56-1.79,22,1.63,32.13,8.94,8.43,6.05,16.29,11.42,22.35,13.35,2.62.83,4.87,1.49,7.11,2,4.79,1.12,9.53,1.64,17.77,2.08,19.34,1,22.11,4.48,24.06,7.23A.41.41,0,0,1,561.64,334.77Z" transform="translate(-240.79 -136.07)"/><path class="cls-4" d="M380.57,380.44c-13.58-4.95-15.58-22.82-12.33-40.6l4.47-1.76S362.3,374.86,381,380.45C386.26,382,383.29,381.43,380.57,380.44Z" transform="translate(-240.79 -136.07)"/><path class="cls-4" d="M423.88,411.54c7.22,2.11,21.18,13.38,31.66,15.18a38.38,38.38,0,0,1-13.45-3.27c-17.63-8.92-28.17-9.92-41-11.69C401.05,411.76,415.63,409.12,423.88,411.54Z" transform="translate(-240.79 -136.07)"/><path class="cls-4" d="M390.32,298.75l-1.86,8.77L381,306.46C384.17,301.93,387.42,299.05,390.32,298.75Z" transform="translate(-240.79 -136.07)"/><path class="cls-4" d="M465,412.65s-2.57-35.7-26.9-44.6c0,0,17.67,3.42,29.67,37.92Z" transform="translate(-240.79 -136.07)"/><path class="cls-6" d="M489.7,316.85" transform="translate(-240.79 -136.07)"/><path class="cls-7" d="M521,158a3.34,3.34,0,0,1,3.13,3.86c-1.86,11.1-6,23.73-15,33.46-20.35,22.13-46.18,31.49-57.71,20.89s-4.37-37.12,16-59.26,57.7-20.89,57.7-20.89a92.7,92.7,0,0,1,.32,12.77,4.17,4.17,0,0,1-3,3.87A20,20,0,0,0,512.23,159,28.08,28.08,0,0,1,521,158Z" transform="translate(-240.79 -136.07)"/><path class="cls-8" d="M457.16,367.45c-.14,2-3.44,48.39-8.05,72.42a8.51,8.51,0,0,1-8.34,6.9,8.85,8.85,0,0,1-1.61-.15,8.51,8.51,0,0,1-6.75-9.95c1.48-7.73,2.85-18.16,4-28.62.16-1.46.32-2.92.47-4.38,2-19.14,3.3-37.12,3.32-37.41a8.5,8.5,0,0,1,17,1.19Z" transform="translate(-240.79 -136.07)"/><path class="cls-9" d="M472.66,198.37s1.46-13.69,4.28-21.72,12-26,18.18-31.37S465,176.18,465,176.18l-4.4,8.48Z" transform="translate(-240.79 -136.07)"/><path class="cls-10" d="M452.33,446a3.52,3.52,0,0,0,3.35-4.7,15.07,15.07,0,0,0-27.72-.2,3.56,3.56,0,0,0,3.28,4.9Z" transform="translate(-240.79 -136.07)"/><line class="cls-11" x1="189.2" y1="308.85" x2="212.82" y2="308.85"/><path class="cls-12" d="M470.67,214.88c-11.52-10.59-4.37-37.13,16-59.26,10.76-11.7,26.26-16.87,38.5-19.14,0-.26,0-.4,0-.4s-37.36-1.24-57.71,20.9-27.5,48.67-16,59.26c5.67,5.22,14.82,5.59,25.07,2A15.73,15.73,0,0,1,470.67,214.88Z" transform="translate(-240.79 -136.07)"/><path class="cls-7" d="M343.22,212.74c24.56,17.35,51.79,21,60.82,8.25s-3.56-37.21-28.11-54.56-60.82-8.25-60.82-8.25S318.66,195.4,343.22,212.74Z" transform="translate(-240.79 -136.07)"/><path class="cls-9" d="M394.62,197.5a105.6,105.6,0,0,1-8,8.26c-6.29,5.7-15.92,20.91-14.08,8.89s-12.74-39.94-30.41-49.27c-9.93-5.24-23.27-5.63-26-6.81l-.92-.38h0c.8-.19,18.88-4.54,38-1Z" transform="translate(-240.79 -136.07)"/><path class="cls-13" d="M392.48,315.05a93,93,0,0,1-7.69,16.36c-3.12,5.1-7.06,10.1-11.79,13.28a18.81,18.81,0,0,1-10.17,3.42h-.44c-14.32,0-24.6-13.49-30.13-23.14-1.32-2.29-2.36-4.37-3.13-6a.61.61,0,0,0-.07-.14c-.41-.87-.73-1.61-1-2.17l0-.12c-.16-.36-.27-.64-.35-.83a8.38,8.38,0,0,1-.47-1.58,8.5,8.5,0,0,1,16.24-4.78,63,63,0,0,0,6,11.12c.69,1,1.42,2,2.16,3,3.45,4.39,7.32,7.67,10.78,7.67h.1c1-.12,2.52-1.42,4.22-3.53a56.67,56.67,0,0,0,5.77-9.13,73.86,73.86,0,0,0,4-9.1,8.5,8.5,0,1,1,16,5.7Z" transform="translate(-240.79 -136.07)"/><path class="cls-12" d="M404,221c-4.44,6.3-13.31,8.59-24.08,7.23a15.8,15.8,0,0,0,5-4.49c3.33-4.72,3.72-11,1.64-18-3.54-11.88-14.26-25.64-29.76-36.58-12.68-9-28.47-10.86-40.79-10.61l-.88,0c0-.26,0-.4,0-.4h0c.8-.19,18.88-4.54,37.95-1a57.75,57.75,0,0,1,22.84,9.22C400.49,183.79,413.07,208.21,404,221Z" transform="translate(-240.79 -136.07)"/><path class="cls-14" d="M334.59,312.72" transform="translate(-240.79 -136.07)"/><path class="cls-14" d="M385.48,312.38" transform="translate(-240.79 -136.07)"/><path class="cls-15" d="M384.4,333a115.17,115.17,0,0,0,8.08-17.9,8.5,8.5,0,0,0-5.16-10.86c-4.42-1.57-8.81.93-10.86,5.16-2.46,5.06-4.95,11-7.2,14.68C373.87,327.67,379.68,331.69,384.4,333Z" transform="translate(-240.79 -136.07)"/><path class="cls-13" d="M493.28,380.18a1.37,1.37,0,0,1-1.28.1l-4.79-2a1.44,1.44,0,0,0-1.78.62L484,381.54l-1.14,2a1.41,1.41,0,0,1-2.54-.17l-2.59-6.83c-.11-.27-1.12-3.24-1.16-3.37a64.4,64.4,0,0,1-.87-24.66c.8-5.7-.33-10.46-3.46-14.56a23.46,23.46,0,0,0-2.37-2.63c-.45-.43-.93-.85-1.42-1.26s-.89-.72-1.35-1.06c-1-.71-2-1.39-3.07-2l-.08,0a63,63,0,0,0-21.61-7.36,8.5,8.5,0,0,1,2.09-16.87c1.14.14,28.06,3.63,41.27,20.84,6,7.8,8.29,17,6.84,27.31-1.6,11.41-.72,17.3-.46,18.62l.06.3,1.84,8.86A1.4,1.4,0,0,1,493.28,380.18Z" transform="translate(-240.79 -136.07)"/><path class="cls-16" d="M421.26,406.52h-1c-32.18,0-50.48-32.63-43.31-62.63l9.75-40.84c3.35-14.05,18.25-23.56,33.82-23.56H421c15.57,0,30.46,9.51,33.82,23.56l9.75,40.84C471.74,373.9,453.44,406.52,421.26,406.52Z" transform="translate(-240.79 -136.07)"/><path class="cls-12" d="M434.3,183.84c-10.63-9.08-4.19-29,1.21-26.2a1.25,1.25,0,0,1,.21,2c-9.94,9.3-.46,18.75.66,22.92A1.27,1.27,0,0,1,434.3,183.84Z" transform="translate(-240.79 -136.07)"/><path class="cls-12" d="M428.37,183.18c1.12-7.74,10.15-23.13,15.56-20.21a1.73,1.73,0,0,1-.68,3.23c-8.6.58-9.25,11.4-11.55,17.82A1.73,1.73,0,0,1,428.37,183.18Z" transform="translate(-240.79 -136.07)"/><path class="cls-17" d="M491.89,257.94" transform="translate(-240.79 -136.07)"/><path class="cls-17" d="M421.46,261.43" transform="translate(-240.79 -136.07)"/><path class="cls-18" d="M392.3,392.54s-9.36,16.65-19.59,22.8" transform="translate(-240.79 -136.07)"/><path class="cls-8" d="M464.42,370.74A49.93,49.93,0,0,1,450,395.53a41.61,41.61,0,0,1-18.13,9.72,43.09,43.09,0,0,1-8.35,1.21c.76,0,1.5-.1,2.24-.18-17.34-1.72-30.11-13.21-36.25-28.21a83.19,83.19,0,0,0,29.81,5.18h1.37C438.67,383.25,453.56,378.38,464.42,370.74Z" transform="translate(-240.79 -136.07)"/><path class="cls-19" d="M394.61,296.63a26.23,26.23,0,0,1-.32,3.55c-.13.92-.32,1.88-.56,2.87,0,0-6.17,29.9-6.75,40.85-.63,12-1.71,23.77,2.55,34.17A64.1,64.1,0,0,1,377.45,372,56.58,56.58,0,0,1,377,343.9l9.75-40.85c.44-1.86.88-3.48,1.33-4.88a33.22,33.22,0,0,1,1.29-3.56C392.27,287.83,394.75,290.39,394.61,296.63Z" transform="translate(-240.79 -136.07)"/><path class="cls-12" d="M484.64,276.49c-4.4,7.61-17.22,18.42-35.47,24.32-10.78,3.48-27.94,3.22-39.75.37-1-.24-1.92-.49-2.82-.76-18.2-5.48-31.84-9.53-39.36-26.78a31.75,31.75,0,0,1,1-27.48A32,32,0,0,0,372,228.34l-.36-4.1a54.33,54.33,0,1,1,108.66,0v.23a25.56,25.56,0,0,0,4.54,14.21C491.21,248.15,491.49,264.62,484.64,276.49Z" transform="translate(-240.79 -136.07)"/><path class="cls-20" d="M370.24,430.93a3.52,3.52,0,0,0,5.58-1.46,15.08,15.08,0,0,0-21.17-17.91,3.56,3.56,0,0,0-.62,5.86Z" transform="translate(-240.79 -136.07)"/><line class="cls-21" x1="112.99" y1="279.71" x2="131.13" y2="294.83"/><circle class="cls-22" cx="217.26" cy="85.82" r="8.9"/><circle class="cls-3" cx="213.49" cy="88.1" r="4.44"/><circle class="cls-22" cx="180.5" cy="94.72" r="8.9"/><circle class="cls-3" cx="176.6" cy="95.89" r="4.44"/><path class="cls-23" d="M442.12,285.32c-10.53-.69-18.21-22.21-15.11-23.89,1.48-.8,1.32.94,2.19,2.88,2.26,5,4.91,15.08,12.78,17.43,4.17,1.24,8.13-1.54,8.62-.13C451.4,283.84,444.9,285.5,442.12,285.32Z" transform="translate(-240.79 -136.07)"/><path class="cls-9" d="M287.54,437.13s14.83-4.29,19.9-3,21.67-1.85,19,3-15.95,7.74-31.87,7S275.87,439.8,287.54,437.13Z" transform="translate(-240.79 -136.07)"/><path class="cls-24" d="M328.18,445.47c7.56-.84,18.94-1,15.44,1.92s-16.13,3.51-17.64,4S319.77,446.4,328.18,445.47Z" transform="translate(-240.79 -136.07)"/><path class="cls-25" d="M327.52,315.14c.18.51.35,1,.52,1.41-.16-.36-.27-.64-.35-.83a8.38,8.38,0,0,1-.47-1.58C327.32,314.47,327.4,314.8,327.52,315.14Z" transform="translate(-240.79 -136.07)"/><path class="cls-25" d="M343.4,315,335,318.84s-.86,5.73-2.73,6.14c-1.32-2.29-2.36-4.37-3.13-6,3.54,6.47,5.14-4.07,5.14-4.07l7.27-3.3,1.92,1A1.35,1.35,0,0,1,343.4,315Z" transform="translate(-240.79 -136.07)"/><path class="cls-26" d="M476,251.64c1.66,10-7.77,13.34-19.77,15.34s-22,1.86-23.67-8.1,6.72-19.66,18.72-21.65S474.35,241.67,476,251.64Z" transform="translate(-240.79 -136.07)"/><ellipse class="cls-9" cx="444.62" cy="255.37" rx="4.55" ry="3.78" transform="translate(-276.69 -59.59) rotate(-9.45)"/><ellipse class="cls-9" cx="463.43" cy="252.23" rx="4.55" ry="3.78" transform="translate(-275.92 -56.55) rotate(-9.45)"/><path class="cls-27" d="M363.93,291.23l-.25.8-.32,1-1.5,4.76-1.49,4.71-4.85,15.38a4.29,4.29,0,0,1-5,2.8l-11.35-2.23a4.56,4.56,0,0,1-1.94-.9,4.12,4.12,0,0,1-1.6-3.28,2.71,2.71,0,0,1,0-.29l2.13-26,.09-1.06.07-.83a3.71,3.71,0,0,1,4.5-3.21L361,286.56A3.7,3.7,0,0,1,363.93,291.23Z" transform="translate(-240.79 -136.07)"/><path class="cls-28" d="M340.6,318.31A4.12,4.12,0,0,1,339,315a2.71,2.71,0,0,1,0-.29l2.13-26,.09-1.06.07-.83a3.71,3.71,0,0,1,4.5-3.21l16,3.15a4.36,4.36,0,0,0-.82-.26l-18.53-3.64a3.71,3.71,0,0,0-4.5,3.21l-.07.83L337.8,288l-2.13,26a2.71,2.71,0,0,0,0,.29,4.12,4.12,0,0,0,1.6,3.28,4.56,4.56,0,0,0,1.94.9l2.5.49A4.8,4.8,0,0,1,340.6,318.31Z" transform="translate(-240.79 -136.07)"/><path class="cls-28" d="M339.28,292.1a32,32,0,0,1,8-2.22c5.45-.85,14.84,1,16.13.86l-20.58-5.93-2.93.6Z" transform="translate(-240.79 -136.07)"/><path class="cls-29" d="M364,292.08l-26.33-5.17a.74.74,0,0,1-.53-1.05l1.27-2.65a3,3,0,0,1,3.12-2l21,4.13a3,3,0,0,1,2.15,3l.17,2.94A.72.72,0,0,1,364,292.08Z" transform="translate(-240.79 -136.07)"/><path class="cls-29" d="M363,286.91l-22.64-4.45h0a3.59,3.59,0,0,1,4.21-2.83l15.61,3.07a3.59,3.59,0,0,1,2.82,4.21Z" transform="translate(-240.79 -136.07)"/><path class="cls-13" d="M342.73,308.66l-4.49-2.3a1.34,1.34,0,0,1-.65-1.67l1.7-4.65a1.35,1.35,0,0,0-1.6-1.77s-4.59.46-6.71,2.2a15.5,15.5,0,0,0-3.49,3.94c-1.14,2.15-1.58,6,0,10.71,4.67,13.49,6.75-.23,6.75-.23l8.41-3.81A1.34,1.34,0,0,0,342.73,308.66Z" transform="translate(-240.79 -136.07)"/><path class="cls-16" d="M474.93,313.83a62.22,62.22,0,0,0-30.55-11.08,8.5,8.5,0,0,0-2.09,16.87c3.82.49,14.37,3.54,21.83,7.48A34.17,34.17,0,0,1,474.93,313.83Z" transform="translate(-240.79 -136.07)"/><path class="cls-28" d="M425.78,406.28c-.74.08-1.48.14-2.24.18h-.19c-.69,0-1.38,0-2.09,0h-1l-1.28,0-1.27-.05-.62,0c-.63,0-1.25-.1-1.87-.16l-1.22-.16q-.6-.07-1.2-.18c-.36-.06-.71-.12-1.06-.2a2.41,2.41,0,0,1-.37-.07c-.63-.12-1.25-.26-1.87-.42-.31-.07-.61-.15-.91-.24l-.91-.26c-1.24-.37-2.45-.79-3.63-1.27l-.74-.31c-.85-.35-1.68-.74-2.49-1.16-.27-.13-.54-.28-.81-.42l-.8-.44-.78-.45c-.52-.3-1-.62-1.54-1l-.75-.5a41.19,41.19,0,0,1-3.57-2.74l-1-.89-1-.92c-.64-.63-1.27-1.28-1.88-1.94-.81-.88-1.59-1.8-2.33-2.75a50.12,50.12,0,0,1-3.11-4.47c-.24-.38-.46-.76-.68-1.15l-.43-.77v0c-.35-.63-.69-1.27-1-1.92l0-.05c-.18-.37-.37-.75-.55-1.14s-.46-1-.68-1.51-.35-.85-.52-1.27c-.1-.24-.19-.48-.28-.72l-.1-.27c-.06-.14-.11-.28-.17-.43a3,3,0,0,1-.11-.32c0-.12-.1-.25-.14-.38a.14.14,0,0,1,0-.06c-.37-1.05-.7-2.11-1-3.18,0-.11-.06-.22-.1-.33a64.1,64.1,0,0,0,12.08,6.09C395.67,393.07,408.44,404.56,425.78,406.28Z" transform="translate(-240.79 -136.07)"/><path class="cls-16" d="M383.28,385.5a50.12,50.12,0,0,0,3.11,4.47A43,43,0,0,1,383.28,385.5Z" transform="translate(-240.79 -136.07)"/><path class="cls-16" d="M386.39,390c.74.95,1.52,1.87,2.33,2.75A35.65,35.65,0,0,1,386.39,390Z" transform="translate(-240.79 -136.07)"/><path class="cls-16" d="M392.6,396.47a40.42,40.42,0,0,1-3.88-3.75A44.3,44.3,0,0,0,392.6,396.47Z" transform="translate(-240.79 -136.07)"/><path class="cls-16" d="M380.57,380.45l.55,1.14C380.93,381.21,380.75,380.83,380.57,380.45Z" transform="translate(-240.79 -136.07)"/><path class="cls-16" d="M379.89,378.94c.22.51.45,1,.68,1.51C380.33,380,380.11,379.45,379.89,378.94Z" transform="translate(-240.79 -136.07)"/><path class="cls-16" d="M381.12,381.59c.2.4.4.8.61,1.19C381.52,382.39,381.32,382,381.12,381.59Z" transform="translate(-240.79 -136.07)"/><path class="cls-16" d="M381.73,382.78l.43.8Z" transform="translate(-240.79 -136.07)"/><path class="cls-16" d="M382.17,383.58q.54,1,1.11,1.92Q382.7,384.56,382.17,383.58Z" transform="translate(-240.79 -136.07)"/><path class="cls-16" d="M377.45,372l.09.33-.09-.33Z" transform="translate(-240.79 -136.07)"/><path class="cls-16" d="M377.54,372.31c.3,1.07.63,2.13,1,3.17C378.18,374.44,377.85,373.38,377.54,372.31Z" transform="translate(-240.79 -136.07)"/><path class="cls-16" d="M378.56,375.55c.16.47.34.93.52,1.4C378.9,376.48,378.73,376,378.56,375.55Z" transform="translate(-240.79 -136.07)"/><path class="cls-16" d="M378.54,375.48l0,.06A.21.21,0,0,0,378.54,375.48Z" transform="translate(-240.79 -136.07)"/><path class="cls-16" d="M379.08,377l.28.72C379.27,377.42,379.17,377.19,379.08,377Z" transform="translate(-240.79 -136.07)"/><path class="cls-16" d="M379.36,377.66c.17.43.34.85.52,1.28C379.71,378.52,379.53,378.09,379.36,377.66Z" transform="translate(-240.79 -136.07)"/><path class="cls-30" d="M409.42,301.18c-1-.24-1.92-.49-2.82-.76-18.2-5.48-31.84-9.53-39.36-26.78a31.75,31.75,0,0,1,1-27.48A32,32,0,0,0,372,228.34l-.36-4.1a54.24,54.24,0,0,1,2.38-16s-.65,19.45,5,23.85-5.08,15.72-3.6,27.4c.53,4.19,1.2,11.27,5.68,17.72C387.63,286.63,399.61,295.7,409.42,301.18Z" transform="translate(-240.79 -136.07)"/><path class="cls-19" d="M432.65,303.37c-11.25,1.22-31.21,1.88-38.92-.32-2.42-.69-4-4.26-5.67-4.88a33.22,33.22,0,0,1,1.29-3.56c1.68.71,3.44,1.37,5.26,2,3.73,1.31,7.74,2.51,12,3.79a25.79,25.79,0,0,0,2.82.76C421.71,303.37,427.41,303.08,432.65,303.37Z" transform="translate(-240.79 -136.07)"/><path class="cls-30" d="M394.26,244.22c4.14-.6,16.55,1.12,15.15,9.05-1.32-.42-.94-.26-2.82-2.46-1.58-4.24-13.27-2.32-12.63-6.29A.35.35,0,0,1,394.26,244.22Z" transform="translate(-240.79 -136.07)"/><path class="cls-28" d="M450,395.53c-2.48,5.84-9.26,10.21-13.61,12.52.16-1.46.32-2.92.47-4.38A41.52,41.52,0,0,0,450,395.53Z" transform="translate(-240.79 -136.07)"/><path class="cls-25" d="M351.62,323.45a4.33,4.33,0,0,1-1.07-.08l-11.35-2.23a4.27,4.27,0,0,1-3.53-4.46l.11-1.42a4.37,4.37,0,0,0,3.42,3.2l10.26,2C350.15,321.51,350.88,322.51,351.62,323.45Z" transform="translate(-240.79 -136.07)"/><path class="cls-28" d="M346.11,311.65l-8.41,3.81s-.14,1-.44,2.1a4.12,4.12,0,0,1-1.6-3.28l7-3.18a1.35,1.35,0,0,0,.06-2.43l-4.48-2.3a1.36,1.36,0,0,1-.66-1.67l1.7-4.65a1.29,1.29,0,0,0,0-.93c1.06-.21,1.84-.29,1.84-.29a1.35,1.35,0,0,1,1.61,1.77l-1.7,4.65a1.34,1.34,0,0,0,.65,1.67l4.49,2.3A1.35,1.35,0,0,1,346.11,311.65Z" transform="translate(-240.79 -136.07)"/><path class="cls-23" d="M307.44,434.1c-1.77-.44-4.71-.21-7.8.28-3.9.86-7.05,1.77-7.05,1.77-11.67,2.67-8.86,6.21,7.05,7a90.76,90.76,0,0,0,17.07-.68c5-1.23,8.51-3.06,9.74-5.32C329.11,432.25,312.52,435.37,307.44,434.1Z" transform="translate(-240.79 -136.07)"/><path class="cls-4" d="M523.87,393.83c.07-.11.13-.24.2-.35A3.34,3.34,0,0,1,523.87,393.83Z" transform="translate(-240.79 -136.07)"/><path class="cls-4" d="M561.64,334.32v.45c-.82,1.65-9.37,5.25-15.06,11.3-6.29,6.68-9.1,16.33-12.22,23.19-3.87,8.5-6.06,17.36-10.29,24.22,1.07-1.93,3.36-10.64,3.85-19.37.62-11.31,2.4-24.41,14.94-33.36C551,334.93,561.64,334.32,561.64,334.32Z" transform="translate(-240.79 -136.07)"/><path class="cls-30" d="M472.33,315.91c-1.88,3-3.32,9-4,14.16-.44-.36-.89-.72-1.35-1.06-1-.71-2-1.39-3.07-2l.14.07A34.07,34.07,0,0,1,472.33,315.91Z" transform="translate(-240.79 -136.07)"/><path class="cls-4" d="M462.76,426.62c-1.07.09-2.15.13-3.23.14A15.87,15.87,0,0,1,462.76,426.62Z" transform="translate(-240.79 -136.07)"/><path class="cls-4" d="M519.81,325c-17,.66-27.64-7.06-40.11-17a29.61,29.61,0,0,0-25.13-6l3.65-1.23c8.56-1.79,22,1.63,32.13,8.94,8.43,6.05,16.29,11.42,22.35,13.35C515.32,323.83,517.57,324.49,519.81,325Z" transform="translate(-240.79 -136.07)"/><path class="cls-9" d="M362.17,291.75s-2.45,2.65-1.74,5.66c.48,2,.73,5.71.21,6.81-.42.88-1.14,1.17-1.74.87-1-.5-1.68-2.63-.07-6.39,3.12-7.29-7.5-9.07-7.5-9.07Z" transform="translate(-240.79 -136.07)"/><path class="cls-30" d="M412.39,230.79a8.9,8.9,0,0,1,17.73-1.08,10.57,10.57,0,0,0,.07-1.14,9.82,9.82,0,1,0-15.91,7.7A8.93,8.93,0,0,1,412.39,230.79Z" transform="translate(-240.79 -136.07)"/><path class="cls-30" d="M449.16,221.89a8.9,8.9,0,0,1,17.75-.91,9.08,9.08,0,0,0,0-.91,9.82,9.82,0,1,0-14.89,8.4A8.86,8.86,0,0,1,449.16,221.89Z" transform="translate(-240.79 -136.07)"/><path class="cls-26" d="M417.69,209.29c3.24-1.44,8.91-.2,8.9,2,0,1.68-3.07,4.48-6.21,3.62s-9,1.51-9-.87S413.63,211.08,417.69,209.29Z" transform="translate(-240.79 -136.07)"/><path class="cls-26" d="M444.41,208.67c-.49-1.46-.71-3.08.39-6.14,1.43-3.95,6.49-7.27,9.25-6.24s1.49,3.71-2,5.59-.91,4.59-3.07,6.6C447.22,210.07,445.09,210.7,444.41,208.67Z" transform="translate(-240.79 -136.07)"/><path class="cls-31" d="M420.77,328.85a13.2,13.2,0,1,1-13.2,13.2,13.21,13.21,0,0,1,13.2-13.2m0-7a20.2,20.2,0,1,0,20.2,20.2,20.2,20.2,0,0,0-20.2-20.2Z" transform="translate(-240.79 -136.07)"/></svg>