<?xml version="1.0" encoding="UTF-8" standalone="no"?>
<!DOCTYPE svg PUBLIC "-//W3C//DTD SVG 1.1//EN" "http://www.w3.org/Graphics/SVG/1.1/DTD/svg11.dtd">
<svg version="1.1" xmlns="http://www.w3.org/2000/svg" xmlns:xlink="http://www.w3.org/1999/xlink" preserveAspectRatio="xMidYMid meet" viewBox="0 0 40 37" width="40" height="37"><defs><path d="M17.96 25.19L17.96 36.26C11.45 36.26 7.84 36.26 7.12 36.26C7.12 15.17 7.12 3.46 7.12 1.12C18.56 1.12 24.92 1.12 26.19 1.12C30.17 1.12 33.32 2.22 35.66 4.58C37.99 6.93 39.09 9.69 39.09 13.15C39.09 15.92 38.4 18.14 37.17 19.93C35.93 21.73 34.42 22.98 32.64 23.81C33.07 24.64 35.22 28.79 39.09 36.26C38.27 36.26 34.15 36.26 26.74 36.26C26.41 35.52 24.76 31.83 21.8 25.19L17.96 25.19ZM26.87 11.08C26.19 10.67 25.36 10.39 24.41 10.39C23.96 10.39 21.77 10.39 17.82 10.39C17.82 10.76 17.82 12.6 17.82 15.92C21.77 15.92 23.96 15.92 24.41 15.92C25.59 15.74 26.42 15.51 26.87 15.23C27.57 14.82 27.84 14.13 27.84 13.15C27.84 12.32 27.57 11.63 26.87 11.08Z" id="b1s16z51tL"></path><path d="M16.8 13.85C16.8 13.85 16.8 13.85 16.8 13.85C16.8 19.68 16.8 22.92 16.8 23.57C16.8 23.57 16.8 23.57 16.8 23.57C7.08 23.57 1.68 23.57 0.6 23.57C0.6 23.57 0.6 23.57 0.6 23.57C0.6 17.74 0.6 14.5 0.6 13.85C0.6 13.85 0.6 13.85 0.6 13.85C10.32 13.85 15.72 13.85 16.8 13.85Z" id="b3JEUoMYyp"></path></defs><g><g><g><use xlink:href="#b1s16z51tL" opacity="1" fill="#17202a" fill-opacity="1"></use><g><use xlink:href="#b1s16z51tL" opacity="1" fill-opacity="0" stroke="#000000" stroke-width="1" stroke-opacity="0"></use></g></g><g><use xlink:href="#b3JEUoMYyp" opacity="1" fill="#17202a" fill-opacity="1"></use><g><use xlink:href="#b3JEUoMYyp" opacity="1" fill-opacity="0" stroke="#000000" stroke-width="1" stroke-opacity="0"></use></g></g></g></g></svg>