<?xml version="1.0" encoding="utf-8"?>
<!-- Generator: Adobe Illustrator 21.0.0, SVG Export Plug-In . SVG Version: 6.00 Build 0)  -->
<svg version="1.1" id="Layer_1" xmlns="http://www.w3.org/2000/svg" xmlns:xlink="http://www.w3.org/1999/xlink" x="0px" y="0px"
	 viewBox="0 0 24 20" style="enable-background:new 0 0 24 20;" xml:space="preserve">
<g transform="translate(-187)">
	<g transform="translate(368 5990)">
		<path d="M-164.8-5978.2c-0.9,0-1.6,0.8-1.6,2.1c0,1.3,0.5,2.6,1.6,2.6c1.2,0,1.6-1.1,1.6-2.6
			C-163.3-5977.4-163.9-5978.2-164.8-5978.2z M-158.9-5984.3c0.2-1.9-0.1-3.9-0.8-5.7c0,0-2.4,0.3-5.9,2.7c-1.1-0.2-2.2-0.3-3.3-0.3
			c-1.1,0-2.2,0.1-3.3,0.3c-3.6-2.4-5.9-2.7-5.9-2.7c-0.8,1.8-1,3.7-0.8,5.7c-1.3,1.3-2,3.1-2,5c0,9.2,7.8,9.4,9.7,9.4
			c0.4,0,1.3,0,2.3,0s1.8,0,2.3,0c2,0,9.7-0.1,9.7-9.4C-157-5981.2-157.7-5983-158.9-5984.3z M-168.9-5971L-168.9-5971
			c-5,0-8.9-0.7-8.9-5.4c0-1.2,0.5-2.3,1.4-3c1.6-1.4,4.3-0.7,7.4-0.7h0.1c3.1,0,5.8-0.8,7.4,0.7c0.9,0.8,1.4,1.9,1.4,3
			C-160.2-5971.7-164-5971-168.9-5971z M-173.2-5978.2c-0.9,0-1.6,1-1.6,2.3s0.6,2.3,1.6,2.3c0.9,0,1.6-1,1.6-2.3
			S-172.2-5978.2-173.2-5978.2z"/>
	</g>
</g>
</svg>
