<?xml version="1.0" encoding="UTF-8" standalone="no"?>
<!DOCTYPE svg PUBLIC "-//W3C//DTD SVG 1.1//EN" "http://www.w3.org/Graphics/SVG/1.1/DTD/svg11.dtd">
<svg version="1.1" xmlns="http://www.w3.org/2000/svg" xmlns:xlink="http://www.w3.org/1999/xlink" preserveAspectRatio="xMidYMid meet" viewBox="0 0 640 85" width="640" height="85"><defs><path d="M191.14 10.07C191.14 16.59 191.14 68.76 191.14 75.28C191.14 80.49 195.24 84.59 200.45 84.59C207.07 84.59 259.98 84.59 266.6 84.59C271.81 84.59 275.91 80.49 275.91 75.28C275.91 68.76 275.91 16.59 275.91 10.07C275.91 4.85 271.63 0.75 266.6 0.75C253.37 0.75 207.07 0.75 200.45 0.75C195.24 0.75 191.14 4.85 191.14 10.07Z" id="aQ94j0x1I"></path><linearGradient id="gradienta2yKyUg8uI" gradientUnits="userSpaceOnUse" x1="233.52" y1="0.75" x2="233.52" y2="84.59"><stop style="stop-color: #123ded;stop-opacity: 1" offset="0%"></stop><stop style="stop-color: #6669f8;stop-opacity: 1" offset="100%"></stop></linearGradient><path d="M191.14 10.07C191.14 16.59 191.14 68.76 191.14 75.28C191.14 80.49 195.24 84.59 200.45 84.59C207.07 84.59 259.98 84.59 266.6 84.59C271.81 84.59 275.91 80.49 275.91 75.28C275.91 68.76 275.91 16.59 275.91 10.07C275.91 4.85 271.63 0.75 266.6 0.75C253.37 0.75 207.07 0.75 200.45 0.75C195.24 0.75 191.14 4.85 191.14 10.07Z" id="a17qE2e1A7"></path><path d="M96.21 10.07C96.21 16.59 96.21 68.76 96.21 75.28C96.21 80.49 100.31 84.59 105.52 84.59C112.14 84.59 165.05 84.59 171.67 84.59C176.88 84.59 180.98 80.49 180.98 75.28C180.98 68.76 180.98 16.59 180.98 10.07C181.17 4.85 176.88 0.75 171.85 0.75C158.59 0.75 112.16 0.75 105.52 0.75C100.31 0.75 96.21 4.85 96.21 10.07Z" id="a17G9pyzuZ"></path><linearGradient id="gradienteHphJFWt9" gradientUnits="userSpaceOnUse" x1="138.6" y1="0.75" x2="138.6" y2="84.59"><stop style="stop-color: #113cec;stop-opacity: 1" offset="0%"></stop><stop style="stop-color: #6669f8;stop-opacity: 1" offset="100%"></stop></linearGradient><path d="M96.21 10.07C96.21 16.59 96.21 68.76 96.21 75.28C96.21 80.49 100.31 84.59 105.52 84.59C112.14 84.59 165.05 84.59 171.67 84.59C176.88 84.59 180.98 80.49 180.98 75.28C180.98 68.76 180.98 16.59 180.98 10.07C181.17 4.85 176.88 0.75 171.85 0.75C158.59 0.75 112.16 0.75 105.52 0.75C100.31 0.75 96.21 4.85 96.21 10.07Z" id="b2fgZF9GJT"></path><path d="M1 10.07C1 16.59 1 68.76 1 75.28C1 80.49 5.1 84.59 10.32 84.59C16.93 84.59 69.84 84.59 76.46 84.59C81.68 84.59 85.77 80.49 85.77 75.28C85.77 68.76 85.77 16.59 85.77 10.07C85.77 4.85 81.68 0.75 76.46 0.75C63.23 0.75 16.93 0.75 10.32 0.75C5.1 0.75 1 4.85 1 10.07Z" id="ah6BZhDwS"></path><linearGradient id="gradientjATPMnFzg" gradientUnits="userSpaceOnUse" x1="43.39" y1="0.75" x2="43.39" y2="84.59"><stop style="stop-color: #113cec;stop-opacity: 1" offset="0%"></stop><stop style="stop-color: #676af9;stop-opacity: 1" offset="100%"></stop></linearGradient><path d="M1 10.07C1 16.59 1 68.76 1 75.28C1 80.49 5.1 84.59 10.32 84.59C16.93 84.59 69.84 84.59 76.46 84.59C81.68 84.59 85.77 80.49 85.77 75.28C85.77 68.76 85.77 16.59 85.77 10.07C85.77 4.85 81.68 0.75 76.46 0.75C63.23 0.75 16.93 0.75 10.32 0.75C5.1 0.75 1 4.85 1 10.07Z" id="a1PoOMUJl"></path><path d="M41.99 52.73L36.77 52.73L36.77 67.64L22.05 67.64C22.05 39.24 22.05 23.47 22.05 20.31C37.59 20.31 46.23 20.31 47.95 20.31C53.36 20.31 57.64 21.8 60.81 24.97C63.98 28.14 65.47 31.86 65.47 36.52C65.47 40.25 64.53 43.23 62.86 45.65C61.18 48.07 59.13 49.75 56.71 50.87C57.29 51.99 60.21 57.58 65.47 67.64C64.35 67.64 58.76 67.64 48.7 67.64L41.99 52.73ZM50.19 36.52C50.19 35.4 49.82 34.47 48.88 33.73C47.95 33.17 46.83 32.8 45.53 32.8C44.93 32.8 41.95 32.8 36.59 32.8C36.59 33.3 36.59 35.78 36.59 40.25C41.95 40.25 44.93 40.25 45.53 40.25C47.14 40 48.26 39.69 48.88 39.32C49.82 38.76 50.19 37.83 50.19 36.52Z" id="e45iW5UIr"></path><path d="M41.99 52.73L36.77 52.73L36.77 67.64L22.05 67.64C22.05 39.24 22.05 23.47 22.05 20.31C37.59 20.31 46.23 20.31 47.95 20.31C53.36 20.31 57.64 21.8 60.81 24.97C63.98 28.14 65.47 31.86 65.47 36.52C65.47 40.25 64.53 43.23 62.86 45.65C61.18 48.07 59.13 49.75 56.71 50.87C57.29 51.99 60.21 57.58 65.47 67.64C64.35 67.64 58.76 67.64 48.7 67.64L41.99 52.73ZM50.19 36.52C50.19 35.4 49.82 34.47 48.88 33.73C47.95 33.17 46.83 32.8 45.53 32.8C44.93 32.8 41.95 32.8 36.59 32.8C36.59 33.3 36.59 35.78 36.59 40.25C41.95 40.25 44.93 40.25 45.53 40.25C47.14 40 48.26 39.69 48.88 39.32C49.82 38.76 50.19 37.83 50.19 36.52Z" id="a2EDo0ryB"></path><path d="M149.05 62.05L131.54 62.05L129.86 67.64L113.28 67.64L131.17 20.31L149.61 20.31L167.31 67.64L150.73 67.64L149.05 62.05ZM135.45 49.56L145.14 49.56L140.3 34.29L135.45 49.56Z" id="iPONLkgHh"></path><path d="M149.05 62.05L131.54 62.05L129.86 67.64L113.28 67.64L131.17 20.31L149.61 20.31L167.31 67.64L150.73 67.64L149.05 62.05ZM135.45 49.56L145.14 49.56L140.3 34.29L135.45 49.56Z" id="e202lTtRus"></path><path d="M226.26 48.82L208 20.31L224.58 20.31L233.52 36.34L242.47 20.31L259.05 20.31L240.98 48.82L240.98 67.64L226.26 67.64L226.26 48.82Z" id="e1YcKgNB6O"></path><path d="M226.26 48.82L208 20.31L224.58 20.31L233.52 36.34L242.47 20.31L259.05 20.31L240.98 48.82L240.98 67.64L226.26 67.64L226.26 48.82Z" id="a3oWNHn3uz"></path><path d="M317.93 42.65L317.93 65.38L304.14 65.38L304.14 20.67L318.3 20.67L334.14 41.91L334.14 20.48L347.92 20.48L347.92 65.38L334.69 65.38L317.93 42.65Z" id="d1NshTiI6y"></path><path d="M317.93 42.65L317.93 65.38L304.14 65.38L304.14 20.67L318.3 20.67L334.14 41.91L334.14 20.48L347.92 20.48L347.92 65.38L334.69 65.38L317.93 42.65Z" id="b2FSqxX4Ko"></path><path d="M355.19 20.67L389.66 20.67L389.66 32.4L368.98 32.4L368.98 36.88L389.1 36.88L389.1 48.61L368.98 48.61L368.98 53.46L389.66 53.46L389.66 65.38L355.19 65.38L355.19 20.67Z" id="bqrpUGqDz"></path><path d="M355.19 20.67L389.66 20.67L389.66 32.4L368.98 32.4L368.98 36.88L389.1 36.88L389.1 48.61L368.98 48.61L368.98 53.46L389.66 53.46L389.66 65.38L355.19 65.38L355.19 20.67Z" id="a1evRNmfny"></path><path d="M405.49 32.4L393.38 32.4L393.38 20.67L431.39 20.67L431.39 32.4L419.28 32.4L419.28 65.38L405.49 65.38L405.49 32.4Z" id="dUmpBzBGL"></path><path d="M405.49 32.4L393.38 32.4L393.38 20.67L431.39 20.67L431.39 32.4L419.28 32.4L419.28 65.38L405.49 65.38L405.49 32.4Z" id="d1FoM4VGkE"></path><path d="M464.93 39.86L459.15 65.2L444.81 65.2L431.77 20.48L447.04 20.48L452.82 47.87L459.71 20.48L469.96 20.48L476.85 47.87L482.63 20.48L498.09 20.48L485.24 65.38L470.89 65.38L464.93 39.86Z" id="aoDiMtCu"></path><path d="M464.93 39.86L459.15 65.2L444.81 65.2L431.77 20.48L447.04 20.48L452.82 47.87L459.71 20.48L469.96 20.48L476.85 47.87L482.63 20.48L498.09 20.48L485.24 65.38L470.89 65.38L464.93 39.86Z" id="l2HLyXIUyB"></path><path d="M504.43 59.61C499.77 55.32 497.35 49.73 497.35 43.02C497.35 36.32 499.77 30.73 504.43 26.44C509.09 22.16 515.05 19.92 522.13 19.92C529.21 19.92 535.17 22.16 539.83 26.44C544.49 30.73 546.91 36.32 546.91 43.02C546.91 49.73 544.49 55.32 539.83 59.61C535.17 63.89 529.21 66.13 522.13 66.13C515.05 66.13 509.09 63.89 504.43 59.61ZM529.95 50.85C532 48.61 532.94 46.01 532.94 42.84C532.94 39.67 532 37.06 529.95 34.83C527.91 32.59 525.3 31.66 522.13 31.66C518.96 31.66 516.35 32.78 514.3 34.83C512.25 37.06 511.32 39.67 511.32 42.84C511.14 46.19 512.25 48.8 514.3 50.85C516.35 53.09 518.96 54.02 522.13 54.02C525.3 54.02 527.91 52.9 529.95 50.85Z" id="bjF2rDMnK"></path><path d="M504.43 59.61C499.77 55.32 497.35 49.73 497.35 43.02C497.35 36.32 499.77 30.73 504.43 26.44C509.09 22.16 515.05 19.92 522.13 19.92C529.21 19.92 535.17 22.16 539.83 26.44C544.49 30.73 546.91 36.32 546.91 43.02C546.91 49.73 544.49 55.32 539.83 59.61C535.17 63.89 529.21 66.13 522.13 66.13C515.05 66.13 509.09 63.89 504.43 59.61ZM529.95 50.85C532 48.61 532.94 46.01 532.94 42.84C532.94 39.67 532 37.06 529.95 34.83C527.91 32.59 525.3 31.66 522.13 31.66C518.96 31.66 516.35 32.78 514.3 34.83C512.25 37.06 511.32 39.67 511.32 42.84C511.14 46.19 512.25 48.8 514.3 50.85C516.35 53.09 518.96 54.02 522.13 54.02C525.3 54.02 527.91 52.9 529.95 50.85Z" id="d1DEVRi5c1"></path><path d="M570.39 51.22L565.54 51.22L565.54 65.38L551.75 65.38C551.75 38.55 551.75 23.65 551.75 20.67C566.29 20.67 574.36 20.67 575.98 20.67C581.01 20.67 585.1 22.16 587.9 25.14C590.69 28.12 592.18 31.66 592.18 36.13C592.18 39.67 591.44 42.47 589.76 44.7C588.09 46.94 586.22 48.61 583.99 49.73C584.55 50.78 587.34 55.99 592.37 65.38C591.33 65.38 586.11 65.38 576.72 65.38L570.39 51.22ZM578.4 35.94C578.4 34.83 578.02 33.9 577.09 33.34C576.16 32.78 575.23 32.4 573.93 32.4C573.37 32.4 570.57 32.4 565.54 32.4C565.54 32.87 565.54 35.23 565.54 39.48C570.57 39.48 573.37 39.48 573.93 39.48C575.54 39.24 576.6 38.93 577.09 38.55C578.02 37.99 578.4 37.06 578.4 35.94Z" id="d9aKoHOUE"></path><path d="M570.39 51.22L565.54 51.22L565.54 65.38L551.75 65.38C551.75 38.55 551.75 23.65 551.75 20.67C566.29 20.67 574.36 20.67 575.98 20.67C581.01 20.67 585.1 22.16 587.9 25.14C590.69 28.12 592.18 31.66 592.18 36.13C592.18 39.67 591.44 42.47 589.76 44.7C588.09 46.94 586.22 48.61 583.99 49.73C584.55 50.78 587.34 55.99 592.37 65.38C591.33 65.38 586.11 65.38 576.72 65.38L570.39 51.22ZM578.4 35.94C578.4 34.83 578.02 33.9 577.09 33.34C576.16 32.78 575.23 32.4 573.93 32.4C573.37 32.4 570.57 32.4 565.54 32.4C565.54 32.87 565.54 35.23 565.54 39.48C570.57 39.48 573.37 39.48 573.93 39.48C575.54 39.24 576.6 38.93 577.09 38.55C578.02 37.99 578.4 37.06 578.4 35.94Z" id="cwZeVTeTA"></path><path d="M613.98 49.55L611.38 52.9L611.38 65.38L597.59 65.38L597.59 20.67L611.38 20.67L611.38 37.44L623.3 20.67L640.07 20.67L622.93 41.53L641 65.38L624.23 65.38L613.98 49.55Z" id="adFw4JYbZ"></path><path d="M613.98 49.55L611.38 52.9L611.38 65.38L597.59 65.38L597.59 20.67L611.38 20.67L611.38 37.44L623.3 20.67L640.07 20.67L622.93 41.53L641 65.38L624.23 65.38L613.98 49.55Z" id="b3mH7GJ2He"></path><path d="M34.64 40.87L34.64 52.54L14.64 52.54L14.64 40.87L34.64 40.87Z" id="a1BAzv3Rw"></path></defs><g><g><g><use xlink:href="#aQ94j0x1I" opacity="1" fill="url(#gradienta2yKyUg8uI)"></use><g><use xlink:href="#aQ94j0x1I" opacity="1" fill-opacity="0" stroke="#000000" stroke-width="1" stroke-opacity="0"></use></g></g><g><use xlink:href="#a17qE2e1A7" opacity="1" fill="#000000" fill-opacity="0"></use><g><use xlink:href="#a17qE2e1A7" opacity="1" fill-opacity="0" stroke="#000000" stroke-width="1" stroke-opacity="0"></use></g></g><g><use xlink:href="#a17G9pyzuZ" opacity="1" fill="url(#gradienteHphJFWt9)"></use><g><use xlink:href="#a17G9pyzuZ" opacity="1" fill-opacity="0" stroke="#000000" stroke-width="1" stroke-opacity="0"></use></g></g><g><use xlink:href="#b2fgZF9GJT" opacity="1" fill="#000000" fill-opacity="0"></use><g><use xlink:href="#b2fgZF9GJT" opacity="1" fill-opacity="0" stroke="#000000" stroke-width="1" stroke-opacity="0"></use></g></g><g><use xlink:href="#ah6BZhDwS" opacity="1" fill="url(#gradientjATPMnFzg)"></use><g><use xlink:href="#ah6BZhDwS" opacity="1" fill-opacity="0" stroke="#000000" stroke-width="1" stroke-opacity="0"></use></g></g><g><use xlink:href="#a1PoOMUJl" opacity="1" fill="#000000" fill-opacity="0"></use><g><use xlink:href="#a1PoOMUJl" opacity="1" fill-opacity="0" stroke="#000000" stroke-width="1" stroke-opacity="0"></use></g></g><g><use xlink:href="#e45iW5UIr" opacity="1" fill="#ffffff" fill-opacity="1"></use><g><use xlink:href="#e45iW5UIr" opacity="1" fill-opacity="0" stroke="#000000" stroke-width="1" stroke-opacity="0"></use></g></g><g><use xlink:href="#a2EDo0ryB" opacity="1" fill="#000000" fill-opacity="0"></use><g><use xlink:href="#a2EDo0ryB" opacity="1" fill-opacity="0" stroke="#000000" stroke-width="1" stroke-opacity="0"></use></g></g><g><use xlink:href="#iPONLkgHh" opacity="1" fill="#ffffff" fill-opacity="1"></use><g><use xlink:href="#iPONLkgHh" opacity="1" fill-opacity="0" stroke="#000000" stroke-width="1" stroke-opacity="0"></use></g></g><g><use xlink:href="#e202lTtRus" opacity="1" fill="#000000" fill-opacity="0"></use><g><use xlink:href="#e202lTtRus" opacity="1" fill-opacity="0" stroke="#000000" stroke-width="1" stroke-opacity="0"></use></g></g><g><use xlink:href="#e1YcKgNB6O" opacity="1" fill="#ffffff" fill-opacity="1"></use><g><use xlink:href="#e1YcKgNB6O" opacity="1" fill-opacity="0" stroke="#000000" stroke-width="1" stroke-opacity="0"></use></g></g><g><use xlink:href="#a3oWNHn3uz" opacity="1" fill="#000000" fill-opacity="0"></use><g><use xlink:href="#a3oWNHn3uz" opacity="1" fill-opacity="0" stroke="#000000" stroke-width="1" stroke-opacity="0"></use></g></g><g><use xlink:href="#d1NshTiI6y" opacity="1" fill="#000000" fill-opacity="1"></use><g><use xlink:href="#d1NshTiI6y" opacity="1" fill-opacity="0" stroke="#000000" stroke-width="1" stroke-opacity="0"></use></g></g><g><use xlink:href="#b2FSqxX4Ko" opacity="1" fill="#000000" fill-opacity="0"></use><g><use xlink:href="#b2FSqxX4Ko" opacity="1" fill-opacity="0" stroke="#000000" stroke-width="1" stroke-opacity="0"></use></g></g><g><use xlink:href="#bqrpUGqDz" opacity="1" fill="#000000" fill-opacity="1"></use><g><use xlink:href="#bqrpUGqDz" opacity="1" fill-opacity="0" stroke="#000000" stroke-width="1" stroke-opacity="0"></use></g></g><g><use xlink:href="#a1evRNmfny" opacity="1" fill="#000000" fill-opacity="0"></use><g><use xlink:href="#a1evRNmfny" opacity="1" fill-opacity="0" stroke="#000000" stroke-width="1" stroke-opacity="0"></use></g></g><g><use xlink:href="#dUmpBzBGL" opacity="1" fill="#000000" fill-opacity="1"></use><g><use xlink:href="#dUmpBzBGL" opacity="1" fill-opacity="0" stroke="#000000" stroke-width="1" stroke-opacity="0"></use></g></g><g><use xlink:href="#d1FoM4VGkE" opacity="1" fill="#000000" fill-opacity="0"></use><g><use xlink:href="#d1FoM4VGkE" opacity="1" fill-opacity="0" stroke="#000000" stroke-width="1" stroke-opacity="0"></use></g></g><g><use xlink:href="#aoDiMtCu" opacity="1" fill="#000000" fill-opacity="1"></use><g><use xlink:href="#aoDiMtCu" opacity="1" fill-opacity="0" stroke="#000000" stroke-width="1" stroke-opacity="0"></use></g></g><g><use xlink:href="#l2HLyXIUyB" opacity="1" fill="#000000" fill-opacity="0"></use><g><use xlink:href="#l2HLyXIUyB" opacity="1" fill-opacity="0" stroke="#000000" stroke-width="1" stroke-opacity="0"></use></g></g><g><use xlink:href="#bjF2rDMnK" opacity="1" fill="#000000" fill-opacity="1"></use><g><use xlink:href="#bjF2rDMnK" opacity="1" fill-opacity="0" stroke="#000000" stroke-width="1" stroke-opacity="0"></use></g></g><g><use xlink:href="#d1DEVRi5c1" opacity="1" fill="#000000" fill-opacity="0"></use><g><use xlink:href="#d1DEVRi5c1" opacity="1" fill-opacity="0" stroke="#000000" stroke-width="1" stroke-opacity="0"></use></g></g><g><use xlink:href="#d9aKoHOUE" opacity="1" fill="#000000" fill-opacity="1"></use><g><use xlink:href="#d9aKoHOUE" opacity="1" fill-opacity="0" stroke="#000000" stroke-width="1" stroke-opacity="0"></use></g></g><g><use xlink:href="#cwZeVTeTA" opacity="1" fill="#000000" fill-opacity="0"></use><g><use xlink:href="#cwZeVTeTA" opacity="1" fill-opacity="0" stroke="#000000" stroke-width="1" stroke-opacity="0"></use></g></g><g><use xlink:href="#adFw4JYbZ" opacity="1" fill="#000000" fill-opacity="1"></use><g><use xlink:href="#adFw4JYbZ" opacity="1" fill-opacity="0" stroke="#000000" stroke-width="1" stroke-opacity="0"></use></g></g><g><use xlink:href="#b3mH7GJ2He" opacity="1" fill="#000000" fill-opacity="0"></use><g><use xlink:href="#b3mH7GJ2He" opacity="1" fill-opacity="0" stroke="#000000" stroke-width="1" stroke-opacity="0"></use></g></g><g><use xlink:href="#a1BAzv3Rw" opacity="1" fill="#ffffff" fill-opacity="1"></use><g><use xlink:href="#a1BAzv3Rw" opacity="1" fill-opacity="0" stroke="#000000" stroke-width="1" stroke-opacity="0"></use></g></g></g></g></svg>