<?xml version="1.0" encoding="utf-8"?>
<svg viewBox="0 0 500 500" width="500" height="500" xmlns="http://www.w3.org/2000/svg">
  <path d="M 224.091 407.569 C 220.635 407.569 217.482 405.574 216.021 402.403 L 92.356 135.834 L 41.016 101.596 C 37.738 99.422 36.295 95.361 37.436 91.601 C 38.576 87.843 42.013 85.278 45.95 85.278 L 170.649 85.278 C 174.194 85.278 177.4 87.379 178.825 90.64 L 267.896 295.501 C 268.786 297.567 268.876 299.919 268.109 302.056 L 232.481 401.672 C 231.27 405.075 228.117 407.408 224.5 407.569 C 224.358 407.569 224.233 407.569 224.091 407.569 Z M 75.361 103.092 L 104.327 122.402 C 105.698 123.31 106.786 124.576 107.463 126.072 L 223.023 375.202 L 250.135 299.385 L 164.806 103.092 L 75.361 103.092 Z" style=""/>
  <path d="M 99.392 352.488 C 94.476 352.488 90.485 348.498 90.485 343.581 L 90.485 129.813 C 90.485 124.896 94.476 120.906 99.392 120.906 C 104.309 120.906 108.3 124.896 108.3 129.813 L 108.3 343.581 C 108.3 348.498 104.309 352.488 99.392 352.488 Z" style=""/>
  <path d="M 152.835 405.931 L 45.95 405.931 C 42.353 405.931 39.092 403.757 37.72 400.425 C 36.349 397.095 37.114 393.264 39.644 390.718 L 93.087 337.275 C 96.561 333.801 102.207 333.801 105.681 337.275 L 159.123 390.718 C 161.671 393.264 162.436 397.095 161.047 400.425 C 159.657 403.757 156.433 405.931 152.835 405.931 Z M 67.452 388.117 L 131.333 388.117 L 99.392 356.176 L 67.452 388.117 Z M 224.091 407.569 C 223.111 407.569 222.131 407.408 221.134 407.07 C 216.502 405.449 214.062 400.354 215.683 395.723 L 322.567 91.246 C 324.206 86.596 329.194 84.156 333.932 85.794 C 338.564 87.415 341.004 92.51 339.383 97.142 L 232.499 401.62 C 231.199 405.271 227.761 407.569 224.091 407.569 Z" style=""/>
  <path d="M 455.673 405.931 L 295.348 405.931 C 291.766 405.931 288.524 403.792 287.135 400.479 C 285.745 397.183 286.476 393.371 288.97 390.806 L 322.068 356.782 L 322.068 94.185 C 322.068 89.268 326.058 85.278 330.975 85.278 L 455.673 85.278 C 459.272 85.278 462.532 87.451 463.903 90.782 C 465.275 94.114 464.509 97.943 461.979 100.491 L 428.97 133.5 L 430.235 357.814 L 462.087 390.841 C 464.563 393.425 465.275 397.219 463.867 400.515 C 462.478 403.792 459.236 405.931 455.673 405.931 Z M 316.439 388.117 L 434.724 388.117 L 414.95 367.613 C 413.365 365.956 412.475 363.765 412.456 361.484 L 411.138 129.867 C 411.121 127.479 412.065 125.198 413.739 123.525 L 434.172 103.092 L 339.882 103.092 L 339.882 360.398 C 339.882 362.713 338.974 364.94 337.353 366.615 L 316.439 388.117 Z" style=""/>
</svg>