<svg width="24" height="24" viewBox="0 0 24 24" fill="none" xmlns="http://www.w3.org/2000/svg">
<path fill-rule="evenodd" clip-rule="evenodd" d="M9 6.29178C8.33309 6.49062 7.69594 6.78887 7.11101 7.1797C5.95987 7.94887 5.06266 9.04212 4.53285 10.3212C4.00303 11.6003 3.86441 13.0078 4.13451 14.3656C4.4046 15.7235 5.07129 16.9708 6.05026 17.9497C7.02922 18.9287 8.2765 19.5954 9.63437 19.8655C10.9922 20.1356 12.3997 19.997 13.6788 19.4671C14.9579 18.9373 16.0511 18.0401 16.8203 16.889C17.2111 16.3041 17.5094 15.6669 17.7082 15H15.5912C15.4728 15.2717 15.3301 15.5336 15.1639 15.7822C14.6136 16.6058 13.8315 17.2476 12.9164 17.6267C12.0014 18.0057 10.9944 18.1049 10.023 17.9117C9.05158 17.7184 8.15925 17.2415 7.45889 16.5411C6.75852 15.8407 6.28157 14.9484 6.08834 13.977C5.8951 13.0055 5.99428 11.9986 6.37331 11.0836C6.75235 10.1685 7.39422 9.38635 8.21777 8.83608C8.46643 8.66992 8.72831 8.52715 9 8.4088V6.29178ZM10.002 4.05548C10.5509 3.99424 11 4.4477 11 4.99999V8.99209C11 9.54438 10.5404 9.97655 10.0183 10.1568C9.77608 10.2404 9.54426 10.3551 9.32891 10.499C8.83426 10.8295 8.44873 11.2993 8.22107 11.8489C7.99341 12.3985 7.93385 13.0033 8.04991 13.5868C8.16597 14.1703 8.45244 14.7062 8.8731 15.1269C9.29376 15.5476 9.82972 15.834 10.4132 15.9501C10.9967 16.0661 11.6015 16.0066 12.1511 15.7789C12.7007 15.5513 13.1705 15.1657 13.501 14.6711C13.6449 14.4557 13.7596 14.2239 13.8432 13.9817C14.0234 13.4596 14.4556 13 15.0079 13H19C19.5523 13 20.0057 13.4491 19.9445 13.9979C19.7853 15.4249 19.2863 16.7982 18.4832 18.0001C17.4943 19.4802 16.0887 20.6337 14.4442 21.3149C12.7996 21.9961 10.99 22.1743 9.24419 21.8271C7.49836 21.4798 5.89472 20.6226 4.63604 19.3639C3.37737 18.1053 2.5202 16.5016 2.17294 14.7558C1.82567 13.01 2.0039 11.2004 2.68509 9.55584C3.36628 7.9113 4.51983 6.50569 5.99987 5.51676C7.20175 4.7137 8.57508 4.21469 10.002 4.05548Z" fill="black"/>
<path fill-rule="evenodd" clip-rule="evenodd" d="M19.7082 8.99998C19.6397 8.77016 19.5593 8.54359 19.4672 8.3212C19.1154 7.47192 18.5998 6.70025 17.9497 6.05024C17.2997 5.40023 16.5281 4.88461 15.6788 4.53283C15.4564 4.44071 15.2298 4.3603 15 4.29178V6.4088C15.5747 6.65913 16.0975 7.01525 16.5411 7.45887C16.9847 7.90248 17.3409 8.42531 17.5912 8.99998H19.7082ZM21.9445 10.002C22.0057 10.5509 21.5523 11 21 11H17.0079C16.4556 11 16.0234 10.5403 15.8432 10.0183C15.8235 9.96128 15.8021 9.90479 15.7789 9.84891C15.6278 9.48398 15.4062 9.15239 15.1269 8.87308C14.8476 8.59377 14.516 8.37221 14.1511 8.22105C14.0952 8.19791 14.0387 8.17648 13.9817 8.1568C13.4596 7.97655 13 7.54438 13 6.99209V2.99998C13 2.4477 13.4491 1.99424 13.9979 2.05548C14.8372 2.14912 15.6609 2.36062 16.4442 2.68507C17.5361 3.13736 18.5282 3.8003 19.364 4.63602C20.1997 5.47175 20.8626 6.4639 21.3149 7.55583C21.6394 8.33912 21.8509 9.16274 21.9445 10.002Z" fill="black"/>
</svg>
