<svg width="24" height="24" viewBox="0 0 24 24" fill="none" xmlns="http://www.w3.org/2000/svg">
<path fill-rule="evenodd" clip-rule="evenodd" d="M10.8341 20H13.166C13.6397 20 14.0524 20.338 14.0127 20.81C13.9502 21.5534 13.5996 22.5925 12.1958 22.9553C12.068 22.9883 11.932 22.9883 11.8042 22.9553C10.4005 22.5925 10.0499 21.5534 9.98733 20.81C9.94762 20.338 10.3604 20 10.8341 20Z" fill="black"/>
<path fill-rule="evenodd" clip-rule="evenodd" d="M7.00001 8C7.74986 5.75068 10.1861 3.22025 11.3584 2.09475C11.7197 1.74778 12.2803 1.74777 12.6417 2.09474C13.8139 3.22023 16.2502 5.75066 17 8C17.3625 9.08739 17.3479 10.5807 17.1579 12.1164C17.1625 12.0792 17.167 12.042 17.1714 12.0048C18.7485 12.0936 20 13.4007 20 15V19.1315C20 19.9302 19.1099 20.4066 18.4453 19.9635L15.5513 18.0342C15.018 18.6402 14.2272 19 13.3741 19H10.6173C9.74457 19 8.93678 18.6234 8.40406 17.9913C8.41716 18.0068 8.43042 18.0222 8.44384 18.0374L5.5547 19.9635C4.89015 20.4066 4 19.9302 4 19.1315V15C4 13.4038 5.24658 12.0988 6.81931 12.0054C6.64489 10.5154 6.64311 9.07058 7.00001 8ZM15.1026 8.63246C15.3348 9.32904 15.356 10.5591 15.1364 12.1505C14.9272 13.6653 14.5424 15.2303 14.204 16.4287C14.118 16.7332 13.8161 17 13.3741 17H10.6173C10.1764 17 9.87696 16.7349 9.79124 16.4341C9.45144 15.2421 9.06549 13.6839 8.85664 12.1712C8.63764 10.585 8.65913 9.34711 8.89735 8.63251C9.15848 7.84922 9.77596 6.87672 10.5784 5.88051C11.0563 5.28714 11.557 4.73738 12 4.2788C12.4431 4.73737 12.9437 5.28713 13.4217 5.8805C14.2241 6.87671 14.8415 7.84919 15.1026 8.63246ZM7.13502 13.9756C7.13664 13.9837 7.13825 13.9919 7.13987 14H7C6.44772 14 6 14.4477 6 15V17.263L7.64408 16.1669C7.46741 15.4968 7.28857 14.7502 7.13502 13.9756ZM16.348 16.1667L16.3491 16.1624L18 17.263V15C18 14.4477 17.5523 14 17 14H16.8498C16.6977 14.7654 16.5216 15.5034 16.348 16.1667Z" fill="black"/>
<circle cx="12" cy="10" r="2" fill="black"/>
</svg>
